<svg viewBox="0 0 1024 1024" xmlns="http://www.w3.org/2000/svg">
  <!-- Background with gradient -->
  <defs>
    <!-- Main gradient background -->
    <linearGradient id="bgGradient" x1="0%" y1="0%" x2="100%" y2="100%">
      <stop offset="0%" style="stop-color:#FF0080;stop-opacity:1" />
      <stop offset="50%" style="stop-color:#7928CA;stop-opacity:1" />
      <stop offset="100%" style="stop-color:#FF0080;stop-opacity:1" />
    </linearGradient>
    
    <!-- Chaos swirl gradient -->
    <linearGradient id="chaosGradient" x1="0%" y1="0%" x2="100%" y2="100%">
      <stop offset="0%" style="stop-color:#00F0FF;stop-opacity:0.8" />
      <stop offset="50%" style="stop-color:#FFD600;stop-opacity:0.8" />
      <stop offset="100%" style="stop-color:#00FF88;stop-opacity:0.8" />
    </linearGradient>
    
    <!-- Play button gradient -->
    <linearGradient id="playGradient" x1="0%" y1="0%" x2="100%" y2="100%">
      <stop offset="0%" style="stop-color:#FFFFFF;stop-opacity:1" />
      <stop offset="100%" style="stop-color:#E0E0E0;stop-opacity:1" />
    </linearGradient>

    <!-- Glow filter -->
    <filter id="glow">
      <feGaussianBlur stdDeviation="8" result="coloredBlur"/>
      <feMerge>
        <feMergeNode in="coloredBlur"/>
        <feMergeNode in="SourceGraphic"/>
      </feMerge>
    </filter>
  </defs>
  
  <!-- iOS rounded square background -->
  <rect width="1024" height="1024" rx="226" ry="226" fill="url(#bgGradient)"/>
  
  <!-- Chaotic swirl elements in background -->
  <path d="M 200 300 Q 150 450 250 600 T 450 750" 
        stroke="url(#chaosGradient)" 
        stroke-width="40" 
        fill="none" 
        opacity="0.4"
        stroke-linecap="round"/>
  
  <path d="M 824 200 Q 750 350 650 400 T 500 550" 
        stroke="url(#chaosGradient)" 
        stroke-width="35" 
        fill="none" 
        opacity="0.3"
        stroke-linecap="round"/>
  
  <path d="M 600 150 Q 700 250 650 400 T 500 700" 
        stroke="url(#chaosGradient)" 
        stroke-width="30" 
        fill="none" 
        opacity="0.35"
        stroke-linecap="round"/>
  
  <!-- Central play icon (YouTube reference) with glow -->
  <g filter="url(#glow)">
    <circle cx="512" cy="512" r="280" fill="rgba(255,255,255,0.15)"/>
    <polygon points="420,340 420,684 740,512" fill="url(#playGradient)"/>
  </g>
  
  <!-- AI neural network nodes (small circles) -->
  <circle cx="280" cy="280" r="25" fill="#00F0FF" opacity="0.9"/>
  <circle cx="744" cy="744" r="25" fill="#FFD600" opacity="0.9"/>
  <circle cx="280" cy="744" r="20" fill="#00FF88" opacity="0.8"/>
  <circle cx="744" cy="280" r="20" fill="#FF0080" opacity="0.8"/>
  
  <!-- Connection lines between nodes (neural net style) -->
  <line x1="280" y1="280" x2="420" y2="340" stroke="#00F0FF" stroke-width="4" opacity="0.5"/>
  <line x1="744" y1="744" x2="740" y2="512" stroke="#FFD600" stroke-width="4" opacity="0.5"/>
  <line x1="280" y1="744" x2="420" y2="684" stroke="#00FF88" stroke-width="4" opacity="0.5"/>
  <line x1="744" y1="280" x2="740" y2="512" stroke="#FF0080" stroke-width="4" opacity="0.5"/>
  
  <!-- Playlist stack lines (subtle) -->
  <rect x="340" y="480" width="120" height="8" rx="4" fill="white" opacity="0.3"/>
  <rect x="340" y="500" width="100" height="8" rx="4" fill="white" opacity="0.25"/>
  <rect x="340" y="520" width="80" height="8" rx="4" fill="white" opacity="0.2"/>
  
  <!-- Brain/chaos sparkles -->
  <circle cx="380" cy="200" r="12" fill="#FFD600" opacity="0.8"/>
  <circle cx="640" cy="820" r="12" fill="#00F0FF" opacity="0.8"/>
  <circle cx="180" cy="500" r="10" fill="#00FF88" opacity="0.7"/>
  <circle cx="844" cy="500" r="10" fill="#FF0080" opacity="0.7"/>
</svg>